<?xml version="1.0" encoding="UTF-8"?>
<svg xmlns="http://www.w3.org/2000/svg" viewBox="0 0 123 123">
  <defs>
    <style>
      .cls-1,
      .cls-2 {
        fill: none;
      }

      .cls-1,
      .cls-3 {
        stroke-width: 0px;
      }

      .cls-2 {
        stroke: #000;
        stroke-linecap: round;
        stroke-linejoin: round;
        stroke-width: 6.25px;
      }

      .cls-3 {
        fill: #fff;
      }
    </style>
  </defs>
  <g>
    <rect class="cls-3" width="123" height="123" rx="20.49" ry="20.49" />
    <g>
      <path class="cls-1" d="M11,12h100v100H11V12Z" />
      <path class="cls-2"
        d="M55.13,94.83c-4.18-.59-8.24-1.83-12.04-3.67l-19.58,4.17,5.42-16.25c-9.68-14.32-5.94-32.8,8.75-43.22,14.69-10.42,35.79-9.57,49.35,2,6.52,5.56,10.33,12.77,11.29,20.25" />
      <path class="cls-2"
        d="M86,103.67l13.96-13.68c3.54-3.43,3.62-9.09.19-12.63-.06-.06-.11-.11-.17-.17-3.62-3.54-9.4-3.55-13.04-.02l-.93.92-.93-.92c-3.62-3.54-9.4-3.55-13.03-.02-3.54,3.43-3.63,9.09-.19,12.63.06.06.11.11.17.17l13.98,13.73Z" />
    </g>
  </g>
</svg>
