<?xml version="1.0" encoding="UTF-8"?>
<svg xmlns="http://www.w3.org/2000/svg" viewBox="0 0 123 123">
  <defs>
    <style>
      .cls-1,
      .cls-2 {
        fill: none;
      }

      .cls-1,
      .cls-3 {
        stroke-width: 0px;
      }

      .cls-2 {
        stroke: #000;
        stroke-linecap: round;
        stroke-linejoin: round;
        stroke-width: 6.25px;
      }

      .cls-3 {
        fill: #fff;
      }
    </style>
  </defs>
  <g>
    <rect class="cls-3" width="123" height="123" rx="20.49" ry="20.49" />
    <g>
      <path class="cls-1" d="M11,12h100v100H11V12Z" />
      <path class="cls-2"
        d="M77.67,87c4.6,0,8.33,3.73,8.33,8.33,0-4.6,3.73-8.33,8.33-8.33-4.6,0-8.33-3.73-8.33-8.33,0,4.6-3.73,8.33-8.33,8.33ZM77.67,37c4.6,0,8.33,3.73,8.33,8.33,0-4.6,3.73-8.33,8.33-8.33-4.6,0-8.33-3.73-8.33-8.33,0,4.6-3.73,8.33-8.33,8.33ZM48.5,87c0-13.81,11.19-25,25-25-13.81,0-25-11.19-25-25,0,13.81-11.19,25-25,25,13.81,0,25,11.19,25,25Z" />
    </g>
  </g>
</svg>
